# xmcd
#
# Track frame offsets: 
#        150
#        13813
#        39043
#        60928
#        90880
#        121198
#        181138
#        201613
#        218938
#        237420
#        270028
#        293920
#
# Disc length: 4207 seconds
#
# Revision: 0
# Processed by: cddbd v1.5.2PL0 Copyright (c) Steve Scherf et al.
# Submitted via: ExactAudioCopy v0.99pb4
#
DISCID=99106d0c
DTITLE=Various Artist - Essential Slow Groove Dancefloor Classics -  Volume 1
DYEAR=1900
DGENRE=Rare Groove
TTITLE0=Pam Todd and Love Exchange - Making Love
TTITLE1=Roberta Gilman - All I Want is My Baby
TTITLE2=Michael Henderson - In the Night Time
TTITLE3=The Moments - Sexy Mama
TTITLE4=Tamiko Jones - I Want You
TTITLE5=James Gilstrap - Love Talk
TTITLE6=Norman Connors featuring Michael Henderson - You Are My Starsh
TTITLE6=ip
TTITLE7=Norman Connors featuring Michael Henderson and Jean Carn - Valen
TTITLE7=tine Love
TTITLE8=Norman Connors featuring Michael Henderson and Phyllis Hyman - W
TTITLE8=e Both Need Each Other
TTITLE9=William DeVaughn - Be Thankful For What You Got
TTITLE10=Hi Gloss - You'll Never Know
TTITLE11=Midnight Starr - Curious
EXTD=
EXTT0=
EXTT1=
EXTT2=
EXTT3=
EXTT4=
EXTT5=
EXTT6=
EXTT7=
EXTT8=
EXTT9=
EXTT10=
EXTT11=
PLAYORDER=
